<svg xmlns="http://www.w3.org/2000/svg" viewBox="0 0 880 200" width="880" height="200" role="img">
<title>Watashi Manager</title>
<defs>
<linearGradient id="bg" x1="0" y1="0" x2="1" y2="1">
<stop offset="0" stop-color="#080c18"/>
<stop offset="0.55" stop-color="#0d1428"/>
<stop offset="1" stop-color="#140f2b"/>
</linearGradient>
<linearGradient id="sweep" x1="0" y1="0" x2="1" y2="0">
<stop offset="0" stop-color="#7c3aed" stop-opacity="0"/>
<stop offset="0.5" stop-color="#22d3ee" stop-opacity="0.45"/>
<stop offset="1" stop-color="#7c3aed" stop-opacity="0"/>
</linearGradient>
<linearGradient id="rule" x1="0" y1="0" x2="1" y2="0">
<stop offset="0" stop-color="#7c3aed" stop-opacity="0.85"/>
<stop offset="1" stop-color="#22d3ee" stop-opacity="0"/>
</linearGradient>
</defs>
<rect width="880" height="200" rx="18" fill="url(#bg)"/>
<line x1="40" y1="0" x2="40" y2="200" stroke="#ffffff" stroke-opacity="0.025"/>
<line x1="80" y1="0" x2="80" y2="200" stroke="#ffffff" stroke-opacity="0.025"/>
<line x1="120" y1="0" x2="120" y2="200" stroke="#ffffff" stroke-opacity="0.025"/>
<line x1="160" y1="0" x2="160" y2="200" stroke="#ffffff" stroke-opacity="0.025"/>
<line x1="200" y1="0" x2="200" y2="200" stroke="#ffffff" stroke-opacity="0.025"/>
<line x1="240" y1="0" x2="240" y2="200" stroke="#ffffff" stroke-opacity="0.025"/>
<line x1="280" y1="0" x2="280" y2="200" stroke="#ffffff" stroke-opacity="0.025"/>
<line x1="320" y1="0" x2="320" y2="200" stroke="#ffffff" stroke-opacity="0.025"/>
<line x1="360" y1="0" x2="360" y2="200" stroke="#ffffff" stroke-opacity="0.025"/>
<line x1="400" y1="0" x2="400" y2="200" stroke="#ffffff" stroke-opacity="0.025"/>
<line x1="440" y1="0" x2="440" y2="200" stroke="#ffffff" stroke-opacity="0.025"/>
<line x1="480" y1="0" x2="480" y2="200" stroke="#ffffff" stroke-opacity="0.025"/>
<line x1="520" y1="0" x2="520" y2="200" stroke="#ffffff" stroke-opacity="0.025"/>
<line x1="560" y1="0" x2="560" y2="200" stroke="#ffffff" stroke-opacity="0.025"/>
<line x1="600" y1="0" x2="600" y2="200" stroke="#ffffff" stroke-opacity="0.025"/>
<line x1="640" y1="0" x2="640" y2="200" stroke="#ffffff" stroke-opacity="0.025"/>
<line x1="680" y1="0" x2="680" y2="200" stroke="#ffffff" stroke-opacity="0.025"/>
<line x1="720" y1="0" x2="720" y2="200" stroke="#ffffff" stroke-opacity="0.025"/>
<line x1="760" y1="0" x2="760" y2="200" stroke="#ffffff" stroke-opacity="0.025"/>
<line x1="800" y1="0" x2="800" y2="200" stroke="#ffffff" stroke-opacity="0.025"/>
<line x1="840" y1="0" x2="840" y2="200" stroke="#ffffff" stroke-opacity="0.025"/>
<line x1="0" y1="40" x2="880" y2="40" stroke="#ffffff" stroke-opacity="0.025"/>
<line x1="0" y1="80" x2="880" y2="80" stroke="#ffffff" stroke-opacity="0.025"/>
<line x1="0" y1="120" x2="880" y2="120" stroke="#ffffff" stroke-opacity="0.025"/>
<line x1="0" y1="160" x2="880" y2="160" stroke="#ffffff" stroke-opacity="0.025"/>
<rect y="0" width="220" height="200" fill="url(#sweep)" opacity="0.7" x="-240"><animate attributeName="x" values="-240;880;880" dur="6s" repeatCount="indefinite" keyTimes="0;0.75;1"/></rect>
<g transform="translate(52,52) scale(0.96)"><g><polygon points="50,6 88,28 88,72 50,94 12,72 12,28" fill="none" stroke="#7c3aed" stroke-width="3.5" stroke-dasharray="30 22" stroke-linecap="round" opacity="0.9"><animateTransform attributeName="transform" type="rotate" from="0 50 50" to="360 50 50" dur="9s" repeatCount="indefinite"/></polygon><polygon points="50,16 79,33 79,67 50,84 21,67 21,33" fill="none" stroke="#22d3ee" stroke-width="2.5" stroke-dasharray="9 15" stroke-linecap="round" opacity="0.75"><animateTransform attributeName="transform" type="rotate" from="360 50 50" to="0 50 50" dur="6s" repeatCount="indefinite"/></polygon><polygon points="50,24 72,37 72,63 50,76 28,63 28,37" fill="#0b1020" stroke="#7c3aed" stroke-width="2.5"><animate attributeName="stroke-width" values="2.5;3.6;2.5" dur="3.2s" repeatCount="indefinite"/><animate attributeName="opacity" values="1;0.86;1" dur="3.2s" repeatCount="indefinite"/></polygon><path d="M38 44 L44 58 L50 49 L56 58 L62 44" fill="none" stroke="#22d3ee" stroke-width="6" stroke-linecap="round" stroke-linejoin="round" opacity="0.85"><animateTransform attributeName="transform" type="translate" values="0 0;0 0;-2.2 -1.4;1.8 1;-1.4 1.6;2 -1.2;0 0;0 0" keyTimes="0;0.7;0.76;0.8;0.84;0.88;0.92;1" dur="5s" repeatCount="indefinite"/></path><path d="M38 44 L44 58 L50 49 L56 58 L62 44" fill="none" stroke="#f472b6" stroke-width="6" stroke-linecap="round" stroke-linejoin="round" opacity="0.85"><animateTransform attributeName="transform" type="translate" values="0 0;0 0;2.2 1.4;-1.8 -1;1.4 -1.6;-2 1.2;0 0;0 0" keyTimes="0;0.7;0.76;0.8;0.84;0.88;0.92;1" dur="5s" repeatCount="indefinite"/></path><path d="M38 44 L44 58 L50 49 L56 58 L62 44" fill="none" stroke="#ffffff" stroke-width="6" stroke-linecap="round" stroke-linejoin="round"><animate attributeName="opacity" values="1;1;0.25;1;0.35;1;1;1" dur="5s" repeatCount="indefinite" keyTimes="0;0.7;0.76;0.8;0.84;0.88;0.92;1"/></path><rect x="30" y="42" width="40" height="3" fill="#22d3ee" opacity="0"><animate attributeName="opacity" values="0;0;0.75;0;0.6;0;0;0" dur="5s" repeatCount="indefinite" keyTimes="0;0.7;0.76;0.8;0.84;0.88;0.92;1"/></rect><rect x="30" y="57" width="40" height="3" fill="#f472b6" opacity="0"><animate attributeName="opacity" values="0;0;0;0.7;0;0.55;0;0" dur="5s" repeatCount="indefinite" keyTimes="0;0.7;0.76;0.8;0.84;0.88;0.92;1"/></rect></g></g>
<text x="186" y="92" font-family="Segoe UI, Helvetica, Arial, sans-serif" font-size="44" font-weight="700" letter-spacing="7" fill="#ffffff">WATASHI <tspan fill="#a78bfa">MANAGER</tspan></text>
<rect x="188" y="106" width="430" height="2" fill="url(#rule)"/>
<text x="188" y="134" font-family="Consolas, Menlo, monospace" font-size="15" letter-spacing="3" fill="#8b93ab">THE  PROXY  PANEL  WITH  A  PULSE</text>
<text x="188" y="158" font-family="Consolas, Menlo, monospace" font-size="13" letter-spacing="2" fill="#5f6880">XRAY  26.2.2  ·  SING-BOX  1.12.19  ·  SELF-HEALING  ·  WATASHI THEME</text>
<circle cx="806" cy="174" r="4" fill="#10b981"><animate attributeName="opacity" values="0.25;1;0.25" dur="2.4s" repeatCount="indefinite" begin="0.0s"/></circle>
<circle cx="828" cy="174" r="4" fill="#22d3ee"><animate attributeName="opacity" values="0.25;1;0.25" dur="2.4s" repeatCount="indefinite" begin="0.4s"/></circle>
<circle cx="850" cy="174" r="4" fill="#7c3aed"><animate attributeName="opacity" values="0.25;1;0.25" dur="2.4s" repeatCount="indefinite" begin="0.8s"/></circle>
</svg>
