<svg xmlns="http://www.w3.org/2000/svg" viewBox="0 0 100 100" width="96" height="96" role="img">
<title>Watashi Manager</title>
<g><polygon points="50,6 88,28 88,72 50,94 12,72 12,28" fill="none" stroke="#7c3aed" stroke-width="3.5" stroke-dasharray="30 22" stroke-linecap="round" opacity="0.9"><animateTransform attributeName="transform" type="rotate" from="0 50 50" to="360 50 50" dur="9s" repeatCount="indefinite"/></polygon><polygon points="50,16 79,33 79,67 50,84 21,67 21,33" fill="none" stroke="#22d3ee" stroke-width="2.5" stroke-dasharray="9 15" stroke-linecap="round" opacity="0.75"><animateTransform attributeName="transform" type="rotate" from="360 50 50" to="0 50 50" dur="6s" repeatCount="indefinite"/></polygon><polygon points="50,24 72,37 72,63 50,76 28,63 28,37" fill="#0b1020" stroke="#7c3aed" stroke-width="2.5"><animate attributeName="stroke-width" values="2.5;3.6;2.5" dur="3.2s" repeatCount="indefinite"/><animate attributeName="opacity" values="1;0.86;1" dur="3.2s" repeatCount="indefinite"/></polygon><path d="M38 44 L44 58 L50 49 L56 58 L62 44" fill="none" stroke="#22d3ee" stroke-width="6" stroke-linecap="round" stroke-linejoin="round" opacity="0.85"><animateTransform attributeName="transform" type="translate" values="0 0;0 0;-2.2 -1.4;1.8 1;-1.4 1.6;2 -1.2;0 0;0 0" keyTimes="0;0.7;0.76;0.8;0.84;0.88;0.92;1" dur="5s" repeatCount="indefinite"/></path><path d="M38 44 L44 58 L50 49 L56 58 L62 44" fill="none" stroke="#f472b6" stroke-width="6" stroke-linecap="round" stroke-linejoin="round" opacity="0.85"><animateTransform attributeName="transform" type="translate" values="0 0;0 0;2.2 1.4;-1.8 -1;1.4 -1.6;-2 1.2;0 0;0 0" keyTimes="0;0.7;0.76;0.8;0.84;0.88;0.92;1" dur="5s" repeatCount="indefinite"/></path><path d="M38 44 L44 58 L50 49 L56 58 L62 44" fill="none" stroke="#ffffff" stroke-width="6" stroke-linecap="round" stroke-linejoin="round"><animate attributeName="opacity" values="1;1;0.25;1;0.35;1;1;1" dur="5s" repeatCount="indefinite" keyTimes="0;0.7;0.76;0.8;0.84;0.88;0.92;1"/></path><rect x="30" y="42" width="40" height="3" fill="#22d3ee" opacity="0"><animate attributeName="opacity" values="0;0;0.75;0;0.6;0;0;0" dur="5s" repeatCount="indefinite" keyTimes="0;0.7;0.76;0.8;0.84;0.88;0.92;1"/></rect><rect x="30" y="57" width="40" height="3" fill="#f472b6" opacity="0"><animate attributeName="opacity" values="0;0;0;0.7;0;0.55;0;0" dur="5s" repeatCount="indefinite" keyTimes="0;0.7;0.76;0.8;0.84;0.88;0.92;1"/></rect></g>
</svg>
